# Blender 4.0.2
# www.blender.org
mtllib window_frame.mtl
o Cube
v -0.500000 -0.500000 0.100000
v -0.500000 0.500000 0.100000
v -0.500000 -0.500000 -0.100000
v -0.500000 0.500000 -0.100000
v 0.500000 -0.500000 0.100000
v 0.500000 0.500000 0.100000
v 0.500000 -0.500000 -0.100000
v 0.500000 0.500000 -0.100000
v -0.500000 -0.500000 -0.100000
v -0.500000 -0.500000 0.100000
v -0.500000 0.500000 0.100000
v -0.500000 0.500000 -0.100000
v 0.500000 -0.500000 -0.100000
v 0.500000 0.500000 -0.100000
v 0.500000 -0.500000 0.100000
v 0.500000 0.500000 0.100000
v -0.526852 -0.526852 -0.121972
v -0.526852 -0.526852 0.121972
v -0.526852 0.526852 0.121972
v -0.526852 0.526852 -0.121972
v 0.526852 -0.526852 -0.121972
v 0.526852 0.526852 -0.121972
v 0.526852 -0.526852 0.121972
v 0.526852 0.526852 0.121972
v -0.634259 -0.634259 -0.121972
v -0.634259 -0.634259 0.121972
v -0.634259 0.634259 0.121972
v -0.634259 0.634259 -0.121972
v 0.634259 -0.634259 -0.121972
v 0.634259 0.634259 -0.121972
v 0.634259 -0.634259 0.121972
v 0.634259 0.634259 0.121972
vn -0.0000 1.0000 -0.0000
vn -0.0000 -0.6333 -0.7739
vn -0.6333 -0.0000 0.7739
vn -0.0000 -0.6333 0.7739
vn -0.0000 0.6333 -0.7739
vn -0.0000 -0.0000 1.0000
vn -0.0000 -0.0000 -1.0000
vn 0.6333 -0.0000 -0.7739
vn 0.6333 -0.0000 0.7739
vn -0.0000 0.6333 0.7739
vn -0.6333 -0.0000 -0.7739
vn -1.0000 -0.0000 -0.0000
vn 1.0000 -0.0000 -0.0000
vn -0.0000 -1.0000 -0.0000
vt 0.375000 0.750000
vt 0.375000 1.000000
vt 0.625000 1.000000
vt 0.625000 0.250000
vt 0.375000 0.250000
vt 0.625000 0.500000
vt 0.625000 0.750000
vt 0.375000 0.500000
vt 0.625000 0.000000
vt 0.375000 0.000000
vt 0.125000 0.750000
vt 0.125000 0.500000
vt 0.875000 0.500000
vt 0.000000 0.000000
vt 0.875000 0.750000
s 0
f 5/1/1 10/2/1 15/1/1
f 1/2/1 11/3/1 10/2/1
f 4/4/1 9/5/1 12/4/1
f 8/6/1 12/4/1 14/6/1
f 12/4/2 22/6/2 14/6/2
f 15/1/3 24/7/3 16/7/3
f 16/7/4 19/3/4 11/3/4
f 13/8/5 17/5/5 9/5/5
f 7/8/1 14/6/1 13/8/1
f 3/5/1 13/8/1 9/5/1
f 2/3/1 16/7/1 11/3/1
f 6/7/1 15/1/1 16/7/1
f 24/7/6 27/3/6 19/3/6
f 21/8/7 25/5/7 17/5/7
f 22/6/7 29/8/7 21/8/7
f 18/2/6 31/1/6 23/1/6
f 9/5/8 20/4/8 12/4/8
f 11/3/9 18/2/9 10/2/9
f 10/2/10 23/1/10 15/1/10
f 14/6/11 21/8/11 13/8/11
f 27/9/12 25/5/12 26/10/12
f 30/6/13 31/1/13 29/8/13
f 29/8/14 26/11/14 25/12/14
f 28/13/1 32/7/1 30/6/1
f 23/1/6 32/7/6 24/7/6
f 20/4/7 30/6/7 22/6/7
f 17/5/7 28/4/7 20/4/7
f 19/3/6 26/2/6 18/2/6
f 13/8/12 16/7/12 14/6/12
f 10/2/1 13/8/1 9/5/1
f 9/5/13 11/3/13 10/2/13
f 12/14/14 16/14/14 11/14/14
f 5/1/1 1/2/1 10/2/1
f 1/2/1 2/3/1 11/3/1
f 4/4/1 3/5/1 9/5/1
f 8/6/1 4/4/1 12/4/1
f 12/4/2 20/4/2 22/6/2
f 15/1/3 23/1/3 24/7/3
f 16/7/4 24/7/4 19/3/4
f 13/8/5 21/8/5 17/5/5
f 7/8/1 8/6/1 14/6/1
f 3/5/1 7/8/1 13/8/1
f 2/3/1 6/7/1 16/7/1
f 6/7/1 5/1/1 15/1/1
f 24/7/6 32/7/6 27/3/6
f 21/8/7 29/8/7 25/5/7
f 22/6/7 30/6/7 29/8/7
f 18/2/6 26/2/6 31/1/6
f 9/5/8 17/5/8 20/4/8
f 11/3/9 19/3/9 18/2/9
f 10/2/10 18/2/10 23/1/10
f 14/6/11 22/6/11 21/8/11
f 27/9/12 28/4/12 25/5/12
f 30/6/13 32/7/13 31/1/13
f 29/8/14 31/1/14 26/11/14
f 28/13/1 27/15/1 32/7/1
f 23/1/6 31/1/6 32/7/6
f 20/4/7 28/4/7 30/6/7
f 17/5/7 25/5/7 28/4/7
f 19/3/6 27/3/6 26/2/6
f 13/8/12 15/1/12 16/7/12
f 10/2/1 15/1/1 13/8/1
f 9/5/13 12/4/13 11/3/13
f 12/14/14 14/14/14 16/14/14
o Cube.002
v 0.506089 -0.014682 0.013895
v 0.506089 -0.014682 -0.013895
v -0.506089 -0.014682 -0.013895
v -0.506089 0.014682 -0.013895
v 0.506089 0.014682 0.013895
v 0.506089 0.014682 -0.013895
v -0.506089 0.014682 0.013895
v -0.506089 -0.014682 0.013895
v -0.014682 -0.527618 0.013895
v -0.014682 0.527618 0.013895
v -0.014682 -0.527618 -0.013895
v -0.014682 0.527618 -0.013895
v 0.014682 -0.527618 0.013895
v 0.014682 0.527618 0.013895
v 0.014682 -0.527618 -0.013895
v 0.014682 0.527618 -0.013895
v -0.014682 0.014682 0.013895
v -0.014682 0.014682 -0.013895
v 0.014682 0.014682 -0.013895
v 0.014682 0.014682 0.013895
v -0.014682 -0.014682 -0.013895
v 0.014682 -0.014682 -0.013895
v 0.014682 -0.014682 0.013895
v -0.014682 -0.014682 0.013895
vn -0.0000 -1.0000 -0.0000
vn -0.0000 1.0000 -0.0000
vn -1.0000 -0.0000 -0.0000
vn -0.0000 -0.0000 -1.0000
vn 1.0000 -0.0000 -0.0000
vn -0.0000 -0.0000 1.0000
vt 0.437500 0.500000
vt 0.437500 0.750000
vt 0.500000 0.750000
vt 0.500000 0.500000
vt 0.437500 0.000000
vt 0.437500 0.250000
vt 0.500000 0.250000
vt 0.500000 0.000000
vt 0.625000 0.000000
vt 0.625000 0.250000
vt 0.625000 0.500000
vt 0.625000 0.750000
vt 0.500000 1.000000
vt 0.437500 1.000000
vt 0.375000 0.250000
vt 0.375000 0.000000
vt 0.375000 0.500000
vt 0.375000 0.750000
vt 0.375000 1.000000
vt 0.625000 1.000000
s 0
f 54/16/15 33/17/15 55/17/15
f 52/18/16 38/19/16 51/19/16
f 56/20/15 35/21/15 53/21/15
f 50/22/16 39/23/16 49/23/16
f 42/24/17 50/22/17 49/23/17
f 44/25/18 51/19/18 50/22/18
f 48/26/19 52/18/19 51/19/19
f 46/27/20 49/28/20 52/18/20
f 52/18/20 56/29/20 55/17/20
f 54/16/18 38/19/18 34/16/18
f 53/21/18 51/19/18 54/16/18
f 49/28/20 40/29/20 56/29/20
f 56/20/17 43/30/17 41/31/17
f 53/21/18 47/32/18 43/30/18
f 54/16/19 45/33/19 47/32/19
f 55/17/20 41/34/20 45/33/20
f 55/17/20 37/18/20 52/18/20
f 50/22/18 35/21/18 36/22/18
f 54/16/15 34/16/15 33/17/15
f 52/18/16 37/18/16 38/19/16
f 56/20/15 40/20/15 35/21/15
f 50/22/16 36/22/16 39/23/16
f 42/24/17 44/25/17 50/22/17
f 44/25/18 48/26/18 51/19/18
f 48/26/19 46/27/19 52/18/19
f 46/27/20 42/35/20 49/28/20
f 52/18/20 49/28/20 56/29/20
f 54/16/18 51/19/18 38/19/18
f 53/21/18 50/22/18 51/19/18
f 49/28/20 39/28/20 40/29/20
f 56/20/17 53/21/17 43/30/17
f 53/21/18 54/16/18 47/32/18
f 54/16/19 55/17/19 45/33/19
f 55/17/20 56/29/20 41/34/20
f 55/17/20 33/17/20 37/18/20
f 50/22/18 53/21/18 35/21/18
